<svg id="visual" viewBox="0 0 900 600" width="900" height="600" xmlns="http://www.w3.org/2000/svg" xmlns:xlink="http://www.w3.org/1999/xlink" version="1.1"><rect x="0" y="0" width="900" height="600" fill="#def6f7"></rect><path d="M0 463L60 463L60 448L120 448L120 453L180 453L180 460L240 460L240 465L300 465L300 455L360 455L360 469L420 469L420 470L480 470L480 459L540 459L540 472L600 472L600 472L660 472L660 454L720 454L720 458L780 458L780 471L840 471L840 465L900 465L900 459L900 601L900 601L840 601L840 601L780 601L780 601L720 601L720 601L660 601L660 601L600 601L600 601L540 601L540 601L480 601L480 601L420 601L420 601L360 601L360 601L300 601L300 601L240 601L240 601L180 601L180 601L120 601L120 601L60 601L60 601L0 601Z" fill="#1ca62e"></path><path d="M0 487L60 487L60 499L120 499L120 479L180 479L180 498L240 498L240 483L300 483L300 478L360 478L360 499L420 499L420 498L480 498L480 493L540 493L540 485L600 485L600 487L660 487L660 494L720 494L720 500L780 500L780 485L840 485L840 479L900 479L900 487L900 601L900 601L840 601L840 601L780 601L780 601L720 601L720 601L660 601L660 601L600 601L600 601L540 601L540 601L480 601L480 601L420 601L420 601L360 601L360 601L300 601L300 601L240 601L240 601L180 601L180 601L120 601L120 601L60 601L60 601L0 601Z" fill="#819112"></path><path d="M0 521L60 521L60 504L120 504L120 520L180 520L180 505L240 505L240 513L300 513L300 511L360 511L360 525L420 525L420 513L480 513L480 514L540 514L540 509L600 509L600 508L660 508L660 525L720 525L720 513L780 513L780 507L840 507L840 510L900 510L900 522L900 601L900 601L840 601L840 601L780 601L780 601L720 601L720 601L660 601L660 601L600 601L600 601L540 601L540 601L480 601L480 601L420 601L420 601L360 601L360 601L300 601L300 601L240 601L240 601L180 601L180 601L120 601L120 601L60 601L60 601L0 601Z" fill="#a37c31"></path><path d="M0 542L60 542L60 551L120 551L120 540L180 540L180 545L240 545L240 541L300 541L300 533L360 533L360 535L420 535L420 549L480 549L480 535L540 535L540 537L600 537L600 535L660 535L660 541L720 541L720 552L780 552L780 535L840 535L840 545L900 545L900 542L900 601L900 601L840 601L840 601L780 601L780 601L720 601L720 601L660 601L660 601L600 601L600 601L540 601L540 601L480 601L480 601L420 601L420 601L360 601L360 601L300 601L300 601L240 601L240 601L180 601L180 601L120 601L120 601L60 601L60 601L0 601Z" fill="#a66e54"></path><path d="M0 563L60 563L60 573L120 573L120 566L180 566L180 567L240 567L240 571L300 571L300 567L360 567L360 565L420 565L420 572L480 572L480 575L540 575L540 576L600 576L600 563L660 563L660 562L720 562L720 563L780 563L780 575L840 575L840 568L900 568L900 569L900 601L900 601L840 601L840 601L780 601L780 601L720 601L720 601L660 601L660 601L600 601L600 601L540 601L540 601L480 601L480 601L420 601L420 601L360 601L360 601L300 601L300 601L240 601L240 601L180 601L180 601L120 601L120 601L60 601L60 601L0 601Z" fill="#906c6c"></path></svg>