<svg id="visual" viewBox="0 0 1920 400" width="1920" height="400" xmlns="http://www.w3.org/2000/svg" xmlns:xlink="http://www.w3.org/1999/xlink" version="1.1"><rect x="0" y="0" width="1920" height="400" fill="#1d0d28"></rect><path d="M0 316L96 316L96 311L192 311L192 312L288 312L288 316L384 316L384 314L480 314L480 312L576 312L576 311L672 311L672 306L768 306L768 307L864 307L864 309L960 309L960 303L1056 303L1056 315L1152 315L1152 312L1248 312L1248 313L1344 313L1344 313L1440 313L1440 304L1536 304L1536 307L1632 307L1632 316L1728 316L1728 308L1824 308L1824 307L1920 307L1920 307L1920 401L1920 401L1824 401L1824 401L1728 401L1728 401L1632 401L1632 401L1536 401L1536 401L1440 401L1440 401L1344 401L1344 401L1248 401L1248 401L1152 401L1152 401L1056 401L1056 401L960 401L960 401L864 401L864 401L768 401L768 401L672 401L672 401L576 401L576 401L480 401L480 401L384 401L384 401L288 401L288 401L192 401L192 401L96 401L96 401L0 401Z" fill="#336d49"></path><path d="M0 329L96 329L96 330L192 330L192 330L288 330L288 331L384 331L384 332L480 332L480 328L576 328L576 325L672 325L672 326L768 326L768 332L864 332L864 323L960 323L960 333L1056 333L1056 331L1152 331L1152 325L1248 325L1248 334L1344 334L1344 324L1440 324L1440 330L1536 330L1536 325L1632 325L1632 328L1728 328L1728 326L1824 326L1824 325L1920 325L1920 333L1920 401L1920 401L1824 401L1824 401L1728 401L1728 401L1632 401L1632 401L1536 401L1536 401L1440 401L1440 401L1344 401L1344 401L1248 401L1248 401L1152 401L1152 401L1056 401L1056 401L960 401L960 401L864 401L864 401L768 401L768 401L672 401L672 401L576 401L576 401L480 401L480 401L384 401L384 401L288 401L288 401L192 401L192 401L96 401L96 401L0 401Z" fill="#3b5b3f"></path><path d="M0 352L96 352L96 344L192 344L192 346L288 346L288 345L384 345L384 349L480 349L480 344L576 344L576 346L672 346L672 351L768 351L768 350L864 350L864 349L960 349L960 348L1056 348L1056 346L1152 346L1152 348L1248 348L1248 348L1344 348L1344 345L1440 345L1440 346L1536 346L1536 347L1632 347L1632 345L1728 345L1728 344L1824 344L1824 346L1920 346L1920 345L1920 401L1920 401L1824 401L1824 401L1728 401L1728 401L1632 401L1632 401L1536 401L1536 401L1440 401L1440 401L1344 401L1344 401L1248 401L1248 401L1152 401L1152 401L1056 401L1056 401L960 401L960 401L864 401L864 401L768 401L768 401L672 401L672 401L576 401L576 401L480 401L480 401L384 401L384 401L288 401L288 401L192 401L192 401L96 401L96 401L0 401Z" fill="#3b4939"></path><path d="M0 368L96 368L96 364L192 364L192 364L288 364L288 367L384 367L384 369L480 369L480 367L576 367L576 369L672 369L672 369L768 369L768 366L864 366L864 370L960 370L960 367L1056 367L1056 365L1152 365L1152 365L1248 365L1248 364L1344 364L1344 366L1440 366L1440 365L1536 365L1536 364L1632 364L1632 364L1728 364L1728 369L1824 369L1824 366L1920 366L1920 365L1920 401L1920 401L1824 401L1824 401L1728 401L1728 401L1632 401L1632 401L1536 401L1536 401L1440 401L1440 401L1344 401L1344 401L1248 401L1248 401L1152 401L1152 401L1056 401L1056 401L960 401L960 401L864 401L864 401L768 401L768 401L672 401L672 401L576 401L576 401L480 401L480 401L384 401L384 401L288 401L288 401L192 401L192 401L96 401L96 401L0 401Z" fill="#373936"></path></svg>